<!-- <svg xmlns="http://www.w3.org/2000/svg" viewBox="0 -960 960 960"><path d="M140-160q-24 0-42-18t-18-42v-520q0-24 18-42t42-18h680q24 0 42 18t18 42v520q0 24-18 42t-42 18H140Zm340-302L140-685v465h680v-465L480-462Zm0-60 336-218H145l335 218ZM140-685v-55 520-465Z"/></svg> -->
<svg  viewBox="0 0 16 13" fill="inherit" xmlns="http://www.w3.org/2000/svg">
<mask id="path-1-inside-1_148_241" fill="inherit">
<path d="M1.2 13C0.88 13 0.6 12.8781 0.36 12.6344C0.12 12.3906 0 12.1062 0 11.7812V1.21875C0 0.89375 0.12 0.609375 0.36 0.365625C0.6 0.121875 0.88 0 1.2 0H14.8C15.12 0 15.4 0.121875 15.64 0.365625C15.88 0.609375 16 0.89375 16 1.21875V11.7812C16 12.1062 15.88 12.3906 15.64 12.6344C15.4 12.8781 15.12 13 14.8 13H1.2ZM8 6.86562L1.2 2.33594V11.7812H14.8V2.33594L8 6.86562ZM8 5.64687L14.72 1.21875H1.3L8 5.64687ZM1.2 2.33594V1.21875V11.7812V2.33594Z"/>
</mask>
<path d="M1.2 13C0.88 13 0.6 12.8781 0.36 12.6344C0.12 12.3906 0 12.1062 0 11.7812V1.21875C0 0.89375 0.12 0.609375 0.36 0.365625C0.6 0.121875 0.88 0 1.2 0H14.8C15.12 0 15.4 0.121875 15.64 0.365625C15.88 0.609375 16 0.89375 16 1.21875V11.7812C16 12.1062 15.88 12.3906 15.64 12.6344C15.4 12.8781 15.12 13 14.8 13H1.2ZM8 6.86562L1.2 2.33594V11.7812H14.8V2.33594L8 6.86562ZM8 5.64687L14.72 1.21875H1.3L8 5.64687ZM1.2 2.33594V1.21875V11.7812V2.33594Z" fill="inherit"/>
<path d="M-5.8 2.33594V11.7812H8.2V2.33594H-5.8ZM8 6.86562L0.238523 18.5172L8 23.6874L15.7615 18.5172L8 6.86562ZM1.2 2.33594H-12.8V9.83185L-6.56148 13.9875L1.2 2.33594ZM1.2 11.7812H-12.8V25.7812H1.2V11.7812ZM14.8 11.7812V25.7812H28.8V11.7812H14.8ZM14.8 2.33594H28.8V-23.8116L7.03852 -9.31565L14.8 2.33594ZM8 5.64687L0.280773 17.3265L7.98851 22.4206L15.7032 17.3371L8 5.64687ZM14.72 1.21875L22.4232 12.9089L61.4099 -12.7813L14.72 -12.7813V1.21875ZM1.3 1.21875V-12.7813H-45.2739L-6.41923 12.8984L1.3 1.21875ZM1.2 -1C2.86866 -1 4.63044 -0.671095 6.3374 0.0718912C8.02554 0.806681 9.34995 1.81052 10.3359 2.81191L-9.61594 22.4568C-6.94598 25.1685 -3.14845 27 1.2 27V-1ZM10.3359 2.81191C11.3239 3.81534 12.2894 5.13825 12.9886 6.79535C13.6937 8.46612 14 10.1748 14 11.7812H-14C-14 15.9905 -12.2843 19.7467 -9.61594 22.4568L10.3359 2.81191ZM14 11.7812V1.21875H-14V11.7812H14ZM14 1.21875C14 2.82523 13.6937 4.53388 12.9886 6.20465C12.2894 7.86175 11.3239 9.18466 10.3359 10.1881L-9.61594 -9.45683C-12.2843 -6.74673 -14 -2.99049 -14 1.21875H14ZM10.3359 10.1881C9.34995 11.1895 8.02554 12.1933 6.3374 12.9281C4.63044 13.6711 2.86866 14 1.2 14V-14C-3.14845 -14 -6.94598 -12.1685 -9.61594 -9.45683L10.3359 10.1881ZM1.2 14H14.8V-14H1.2V14ZM14.8 14C13.1313 14 11.3696 13.6711 9.6626 12.9281C7.97446 12.1933 6.65005 11.1895 5.66406 10.1881L25.6159 -9.45683C22.946 -12.1685 19.1485 -14 14.8 -14V14ZM5.66406 10.1881C4.67608 9.18466 3.71063 7.86175 3.01138 6.20465C2.30635 4.53388 2 2.82523 2 1.21875H30C30 -2.99049 28.2843 -6.74673 25.6159 -9.45683L5.66406 10.1881ZM2 1.21875V11.7812H30V1.21875H2ZM2 11.7812C2 10.1748 2.30635 8.46612 3.01138 6.79535C3.71063 5.13825 4.67608 3.81534 5.66406 2.81191L25.6159 22.4568C28.2843 19.7467 30 15.9905 30 11.7812H2ZM5.66406 2.81191C6.65005 1.81052 7.97446 0.806681 9.6626 0.0718912C11.3696 -0.671095 13.1313 -1 14.8 -1V27C19.1485 27 22.946 25.1685 25.6159 22.4568L5.66406 2.81191ZM14.8 -1H1.2V27H14.8V-1ZM15.7615 -4.78596L8.96148 -9.31565L-6.56148 13.9875L0.238523 18.5172L15.7615 -4.78596ZM1.2 25.7812H14.8V-2.21875H1.2V25.7812ZM28.8 11.7812V2.33594H0.8V11.7812H28.8ZM7.03852 -9.31565L0.238523 -4.78596L15.7615 18.5172L22.5615 13.9875L7.03852 -9.31565ZM15.7032 17.3371L22.4232 12.9089L7.01678 -10.4714L0.296784 -6.04331L15.7032 17.3371ZM14.72 -12.7813H1.3V15.2187H14.72V-12.7813ZM-6.41923 12.8984L0.280773 17.3265L15.7192 -6.03275L9.01923 -10.4609L-6.41923 12.8984ZM15.2 2.33594V1.21875H-12.8V2.33594H15.2ZM-12.8 1.21875V11.7812H15.2V1.21875H-12.8Z" fill="inherit" mask="url(#path-1-inside-1_148_241)"/>
</svg>
