<svg xmlns="http://www.w3.org/2000/svg" viewBox="0 0 91 91" xml:space="preserve"><g><path d="M89.999 45C89.999 20.188 69.813.001 45 .001S.001 20.188.001 45 20.188 89.999 45 89.999a4.5 4.5 0 0 0 0-9C25.15 80.999 9.001 64.85 9.001 45S25.15 9.001 45 9.001 80.999 25.15 80.999 45.055c.059 4.718-1.178 10.789-4.069 13.716-1.269 1.284-2.757 1.882-4.686 1.882-4.443 0-5.797-1.516-6.242-2.013-1.81-2.026-2.411-6.23-1.741-12.159.002-.014-.001-.027 0-.041.001-.013.006-.025.007-.038l.08-.84c.051-.482.106-.962.137-1.445l1.792-18.845a4.5 4.5 0 0 0-4.054-4.906c-2.259-.215-4.269 1.288-4.783 3.434-2.734-2.239-6.14-3.475-10.025-3.454-8.045 0-14.87 4.117-19.225 11.602-5.494 9.44-5.976 22.925-1.122 31.366 3.074 5.346 7.96 8.29 13.757 8.29 6.671 0 12.66-3.144 17.031-8.885.43.682.904 1.324 1.432 1.916 2.975 3.329 7.333 5.018 12.954 5.018 4.31 0 8.144-1.576 11.088-4.557C89.669 58.682 90.037 48.05 89.999 45zM40.827 62.604c-2.546 0-4.494-1.235-5.955-3.776-3.264-5.677-2.772-15.704 1.098-22.354 1.895-3.256 5.417-7.127 11.472-7.127h.073c7.669 0 8.058 10.348 8.058 12.422 0 .511-.018 1.037-.053 1.574l-.148 1.555c-.988 8.046-5.678 17.706-14.545 17.706z" /></g></svg>
